<svg xmlns="http://www.w3.org/2000/svg" width="96" height="96" viewBox="0 0 96 96" fill="none">
  <defs>
    <linearGradient id="clipper" x1="12" y1="16" x2="36" y2="76" gradientUnits="userSpaceOnUse">
      <stop stop-color="#FFCF4D" />
      <stop offset=".55" stop-color="#FF9B14" />
      <stop offset="1" stop-color="#F57600" />
    </linearGradient>
    <linearGradient id="scissor" x1="43" y1="20" x2="79" y2="77" gradientUnits="userSpaceOnUse">
      <stop stop-color="#FFB22E" />
      <stop offset=".55" stop-color="#FF7B00" />
      <stop offset="1" stop-color="#EF5E00" />
    </linearGradient>
    <linearGradient id="comb" x1="35" y1="58" x2="68" y2="86" gradientUnits="userSpaceOnUse">
      <stop stop-color="#FFD166" />
      <stop offset="1" stop-color="#FF9F1C" />
    </linearGradient>
    <linearGradient id="teal" x1="35" y1="10" x2="84" y2="86" gradientUnits="userSpaceOnUse">
      <stop stop-color="#1F9A94" />
      <stop offset="1" stop-color="#0F5A67" />
    </linearGradient>
  </defs>

  <path
    d="M58 12H35v72h27c12 0 20-7 20-18 0-9-6-15-14-17 9-2 14-8 14-18 0-12-8-19-24-19Z"
    stroke="url(#teal)"
    stroke-width="8"
    stroke-linecap="round"
    stroke-linejoin="round"
    opacity=".96"
  />

  <g transform="translate(4 0)">
    <rect x="12" y="18" width="20" height="54" rx="9" fill="url(#clipper)" stroke="#0F6470" stroke-width="2.4" />
    <path d="M11 37c-4 6-4 13 0 18" stroke="#0F6470" stroke-width="4.8" stroke-linecap="round" />
    <circle cx="13.5" cy="28" r="2.2" fill="#FFF8E7" />
    <path d="M14 72h16" stroke="#0F6470" stroke-width="3" stroke-linecap="round" />
    <path d="M18 76h8" stroke="#0F6470" stroke-width="3" stroke-linecap="round" />
    <rect x="13" y="11" width="2.6" height="9" rx="1.1" fill="#F57600" />
    <rect x="17" y="11" width="2.6" height="9" rx="1.1" fill="#F57600" />
    <rect x="21" y="11" width="2.6" height="9" rx="1.1" fill="#F57600" />
    <rect x="25" y="11" width="2.6" height="9" rx="1.1" fill="#F57600" />
    <rect x="29" y="11" width="2.6" height="9" rx="1.1" fill="#F57600" />
  </g>

  <path d="M49 49L73 20" stroke="#0F6470" stroke-width="9" stroke-linecap="round" stroke-linejoin="round" />
  <path d="M52 50L76 29" stroke="url(#scissor)" stroke-width="6.5" stroke-linecap="round" stroke-linejoin="round" />
  <path d="M49 49L71 74" stroke="url(#scissor)" stroke-width="7.5" stroke-linecap="round" stroke-linejoin="round" />
  <path d="M50 46L63 61" stroke="#0F6470" stroke-width="3.5" stroke-linecap="round" stroke-linejoin="round" />
  <circle cx="45" cy="67" r="8.6" fill="#FFFAF1" stroke="#EF7A00" stroke-width="4.6" />
  <circle cx="76" cy="69" r="8.8" fill="#FFFAF1" stroke="#EF7A00" stroke-width="4.6" />
  <circle cx="50.2" cy="50.2" r="3" fill="#FFF4DF" stroke="#EF7A00" stroke-width="1.8" />

  <path d="M35 84L54 61l13 8-20 18Z" fill="url(#comb)" stroke="#EF7A00" stroke-width="2.2" stroke-linejoin="round" />
  <path d="M41 80l-3.2 4.1" stroke="#FFF7E7" stroke-width="1.8" stroke-linecap="round" />
  <path d="M44.1 77.5l-3.2 4.1" stroke="#FFF7E7" stroke-width="1.8" stroke-linecap="round" />
  <path d="M47.2 75l-3.2 4.1" stroke="#FFF7E7" stroke-width="1.8" stroke-linecap="round" />
  <path d="M50.3 72.5l-3.2 4.1" stroke="#FFF7E7" stroke-width="1.8" stroke-linecap="round" />
  <path d="M53.4 70l-3.2 4.1" stroke="#FFF7E7" stroke-width="1.8" stroke-linecap="round" />
  <path d="M56.5 67.5l-3.2 4.1" stroke="#FFF7E7" stroke-width="1.8" stroke-linecap="round" />
  <path d="M59.6 65l-3.2 4.1" stroke="#FFF7E7" stroke-width="1.8" stroke-linecap="round" />
</svg>
